<?xml version="1.0" encoding="utf-8"?>
<!-- Generator: Adobe Illustrator 25.0.0, SVG Export Plug-In . SVG Version: 6.00 Build 0)  -->
<svg version="1.1" xmlns="http://www.w3.org/2000/svg" xmlns:xlink="http://www.w3.org/1999/xlink" x="0px" y="0px"
	 viewBox="0 0 100 100" style="enable-background:new 0 0 100 100;" xml:space="preserve">
<style type="text/css">
	.st0{display:none;}
	.st1{display:inline;fill:#F9DE95;}
	.st2{fill:#F9DE95;}
</style>
<g id="Capa_1" class="st0">
	<path class="st1" d="M50.4,4.1C25,4.1,4.5,24.6,4.5,50c0,25.3,20.5,45.9,45.9,45.9c25.3,0,45.9-20.5,45.9-45.9
		C96.3,24.6,75.7,4.1,50.4,4.1z M37.9,69.9C26.9,69.9,18,61,18,50c0-11,8.9-19.9,19.9-19.9c5.5,0,10.4,2.2,14,5.7l-4.1,3.5
		c-2.6-2.4-6.1-3.9-9.9-3.9c-8,0-14.5,6.5-14.5,14.5c0,8,6.5,14.5,14.5,14.5c6.1,0,10.7-4,12.2-10.4H37.6l0-5.3h18.5l0,2.1
		C56.2,61.8,48.5,69.9,37.9,69.9z M82.8,53.9h-7.7v7.7h-4.9v-7.7h-7.7V49h7.7v-7.7h4.9V49h7.7V53.9z"/>
</g>
<g id="Capa_2" class="st0">
	<path class="st1" d="M50,4.1C24.7,4.1,4.1,24.7,4.1,50S24.7,95.9,50,95.9S95.9,75.3,95.9,50S75.3,4.1,50,4.1z M38.7,70.5h-9.5V39.8
		h9.5V70.5z M33.9,35.8c-3.1,0-5.6-2.5-5.6-5.7c0-3.1,2.5-5.7,5.6-5.7c3.1,0,5.6,2.5,5.6,5.7C39.5,33.2,37,35.8,33.9,35.8z
		 M74.3,70.5h-9.5c0,0,0-11.7,0-16.1c0-4.4-1.7-6.9-5.2-6.9c-3.8,0-5.8,2.6-5.8,6.9c0,4.7,0,16.1,0,16.1h-9.1V39.8h9.1v4.1
		c0,0,2.7-5.1,9.2-5.1c6.5,0,11.2,4,11.2,12.2C74.3,59.2,74.3,70.5,74.3,70.5z"/>
</g>
<g id="Capa_3">
	<path class="st2" d="M50,4.1C24.7,4.1,4.1,24.7,4.1,50c0,25.3,20.5,45.9,45.9,45.9c25.3,0,45.9-20.5,45.9-45.9
		C95.9,24.7,75.3,4.1,50,4.1z M62.8,32c0,0-4.3,0-6,0c-2.1,0-2.6,0.9-2.6,3.1c0,1.8,0,5.3,0,5.3h8.6L62,49.8h-7.8v28H43V49.9h-5.8
		v-9.5H43c0,0,0-1.4,0-7.5c0-7,3.7-10.7,12.1-10.7c1.4,0,7.7,0,7.7,0V32z"/>
</g>
</svg>
