<xml version="1.0" encoding="utf-8"/>
  <svg 
    version="1.1" id="Capa_1" 
    xmlns="http://www.w3.org/2000/svg" 
    xmlns:xlink="http://www.w3.org/1999/xlink" 
    x="0px" y="0px"
    viewBox="0 0 100 100"  
    style="enable-background:new 0 0 100 100;" 
    xml:space="preserve">
    
    <path fill='#F9DE95' d="M50.4,4.1C25,4.1,4.5,24.6,4.5,50c0,25.3,20.5,45.9,45.9,45.9c25.3,0,45.9-20.5,45.9-45.9
    C96.3,24.6,75.7,4.1,50.4,4.1z M37.9,69.9C26.9,69.9,18,61,18,50c0-11,8.9-19.9,19.9-19.9c5.5,0,10.4,2.2,14,5.7l-4.1,3.5
    c-2.6-2.4-6.1-3.9-9.9-3.9c-8,0-14.5,6.5-14.5,14.5c0,8,6.5,14.5,14.5,14.5c6.1,0,10.7-4,12.2-10.4H37.6l0-5.3h18.5l0,2.1
    C56.2,61.8,48.5,69.9,37.9,69.9z M82.8,53.9h-7.7v7.7h-4.9v-7.7h-7.7V49h7.7v-7.7h4.9V49h7.7V53.9z"/>
  </svg>